<svg height="512pt" viewBox="-12 0 511 512" width="512pt" xmlns="http://www.w3.org/2000/svg"><path d="m424.976562 0h-334.109374c-12.859376 0-23.289063 10.425781-23.289063 23.289062v174.597657c0 12.863281 10.429687 23.289062 23.289063 23.289062h334.109374c12.859376 0 23.285157-10.425781 23.285157-23.289062v-174.597657c0-12.863281-10.425781-23.289062-23.285157-23.289062zm0 0" fill="#74dbad"/><path d="m415 147.035156v-72.890625c-22.574219 0-40.878906-18.304687-40.878906-40.882812h-232.398438c0 22.578125-18.300781 40.882812-40.878906 40.882812v72.890625c22.578125 0 40.878906 18.304688 40.878906 40.878906h232.398438c0-22.578124 18.300781-40.878906 40.878906-40.878906zm0 0" fill="#2c967f"/><g fill="#74dbad"><path d="m299.113281 110.589844c0 22.75-18.441406 41.191406-41.191406 41.191406s-41.191406-18.441406-41.191406-41.191406 18.441406-41.191406 41.191406-41.191406 41.191406 18.441406 41.191406 41.191406zm0 0"/><path d="m369.953125 118.507812h-25.347656c-4.375 0-7.921875-3.542968-7.921875-7.917968s3.546875-7.921875 7.921875-7.921875h25.347656c4.375 0 7.917969 3.546875 7.917969 7.921875s-3.542969 7.917968-7.917969 7.917968zm0 0"/><path d="m171.238281 118.507812h-25.347656c-4.375 0-7.921875-3.542968-7.921875-7.917968s3.546875-7.921875 7.921875-7.921875h25.347656c4.375 0 7.917969 3.546875 7.917969 7.921875s-3.542969 7.917968-7.917969 7.917968zm0 0"/></g><path d="m414.996094 41.183594c-3.375 0-6.449219-2.234375-7.507813-5.4375-1.042969-3.144532.027344-6.699219 2.648438-8.734375 5.425781-4.203125 13.613281.351562 12.726562 7.21875-.503906 3.917969-3.910156 6.953125-7.867187 6.953125zm0 0" fill="#2c967f"/><path d="m100.839844 41.183594c-7.136719 0-10.578125-9.101563-5.257813-13.839844 2.65625-2.363281 6.695313-2.644531 9.652344-.671875 2.652344 1.769531 4.019531 5.089844 3.355469 8.214844-.765625 3.613281-4.042969 6.296875-7.75 6.296875zm0 0" fill="#2c967f"/><path d="m486.519531 184.117188v275.574218c0 28.882813-23.414062 52.308594-52.300781 52.308594h-349.734375c-28.882813 0-52.296875-23.425781-52.296875-52.308594v-275.574218c0-28.886719 23.414062-52.3125 52.296875-52.3125h349.734375c28.886719 0 52.300781 23.425781 52.300781 52.3125zm0 0" fill="#183549"/><path d="m486.519531 184.117188v275.574218c0 28.882813-23.414062 52.308594-52.300781 52.308594h-306.960938c-28.886718 0-52.300781-23.425781-52.300781-52.308594v-275.574218c0-28.886719 23.414063-52.3125 52.300781-52.3125h306.960938c28.886719 0 52.300781 23.425781 52.300781 52.3125zm0 0" fill="#24465e"/><path d="m180.628906 254.578125h-146.820312c-18.394532 0-33.308594 14.914063-33.308594 33.308594v68.03125c0 18.398437 14.914062 33.308593 33.308594 33.308593h146.824218c18.394532 0 33.304688-14.910156 33.304688-33.308593v-68.03125c0-18.394531-14.910156-33.308594-33.308594-33.308594zm0 0" fill="#183549"/><path d="m178.835938 321.902344c0 15.417968-10.074219 28.492187-24.003907 32.992187-3.359375 1.078125-6.929687 1.65625-10.648437 1.65625-19.136719 0-34.648438-15.511719-34.648438-34.648437 0-19.136719 15.511719-34.652344 34.648438-34.652344 3.71875 0 7.289062.582031 10.648437 1.65625 13.929688 4.5 24.003907 17.574219 24.003907 32.996094zm0 0" fill="#dd9947"/><path d="m178.835938 321.902344c0 15.417968-10.074219 28.492187-24.003907 32.992187-13.929687-4.488281-24.015625-17.5625-24.015625-32.992187 0-15.429688 10.085938-28.507813 24.015625-32.996094 13.929688 4.5 24.003907 17.574219 24.003907 32.996094zm0 0" fill="#f4d06b"/></svg>