<svg viewBox="0 0 64 64" width="512" height="512" xmlns="http://www.w3.org/2000/svg"><g id="smartphone-money-online-2" data-name="smartphone-money-online"><rect fill="#2488ff" height="44" rx="2" width="28" x="3" y="10"/><path d="m37 23h3.06a7.917 7.917 0 0 0 1 2.97l-.06.03h-24v-4h17.77a1.2 1.2 0 0 0 .11.12 2.993 2.993 0 0 0 2.12.88z" fill="#00e7f0"/><path d="m43 30v10a2.006 2.006 0 0 1 -2 2h-24v-12z" fill="#00e7f0"/><path d="m49 20h7v14h-7z" fill="#ffc477"/><path d="m35.5 34.69a2 2 0 1 1 0 2.62 2 2 0 1 1 0-2.62z" fill="#ffda44"/><path d="m29 10h-6.27a1.973 1.973 0 0 1 .232.72 25.815 25.815 0 0 1 6.038-.72z" fill="#57a4ff"/><path d="m11 11a2 2 0 0 1 .27-1h-6.27a2.006 2.006 0 0 0 -2 2v24a26.067 26.067 0 0 1 13.925-23h-3.925a2.006 2.006 0 0 1 -2-2z" fill="#57a4ff"/><path d="m16.925 13h4.075a2.015 2.015 0 0 0 2-2 1.867 1.867 0 0 0 -.038-.28 25.783 25.783 0 0 0 -6.037 2.28z" fill="#ff9811"/><path d="m22.73 10h-11.46a2 2 0 0 0 1.73 3h3.925a25.783 25.783 0 0 1 6.037-2.28 1.973 1.973 0 0 0 -.232-.72z" fill="#ffa32b"/><path d="m56 17h5v19h-5z" fill="#b39a7c"/><path d="m17 22h24a2 2 0 0 1 2 2v2a0 0 0 0 1 0 0h-26a0 0 0 0 1 0 0v-4a0 0 0 0 1 0 0z" fill="#00e7f0"/><path d="m17 26h26v4h-26z" fill="#00b6bd"/><path d="m16 20h2v24h-2z" fill="#e0e0e2"/><path d="m52 23.61v6.78a6.625 6.625 0 0 1 -6.61 6.61h-2.39v-8.76a7.99 7.99 0 0 1 -2.94-5.24h-3.06a2.993 2.993 0 0 1 -2.12-.88 2.838 2.838 0 0 1 -.7-1.12 2.772 2.772 0 0 1 -.18-1 3 3 0 0 1 3-3h8.39a6.625 6.625 0 0 1 6.61 6.61z" fill="#ffdaaa"/><path d="m18 42h13v1h-13z" fill="#006df0"/></g></svg>